<?xml version="1.0" standalone="no"?>
<!DOCTYPE svg PUBLIC "-//W3C//DTD SVG 20010904//EN"
 "http://www.w3.org/TR/2001/REC-SVG-20010904/DTD/svg10.dtd">
<svg version="1.0" xmlns="http://www.w3.org/2000/svg"
 width="700.000000pt" height="700.000000pt" viewBox="0 0 700.000000 700.000000"
 preserveAspectRatio="xMidYMid meet">
<metadata>
Created by potrace 1.11, written by Peter Selinger 2001-2013
</metadata>
<g transform="translate(0.000000,700.000000) scale(0.100000,-0.100000)"
fill="#000000" stroke="none">
<path d="M3478 6566 c-1 -2 -64 -6 -138 -10 -74 -3 -144 -8 -155 -10 -11 -2
-49 -7 -85 -11 -36 -3 -72 -8 -80 -10 -8 -2 -31 -7 -50 -10 -19 -3 -48 -8 -63
-11 -69 -11 -312 -78 -407 -111 -495 -171 -935 -465 -1285 -858 -44 -49 -82
-92 -85 -95 -10 -9 -145 -193 -177 -240 -115 -172 -238 -408 -310 -600 -59
-154 -122 -369 -137 -464 -4 -21 -8 -41 -10 -45 -2 -3 -7 -28 -10 -56 -4 -27
-9 -59 -12 -70 -3 -11 -6 -36 -8 -55 -9 -85 -16 -159 -21 -205 -6 -59 -6 -342
0 -400 2 -22 6 -69 9 -105 9 -101 16 -151 25 -200 5 -25 15 -74 22 -110 54
-290 182 -631 342 -910 381 -663 983 -1152 1712 -1392 82 -27 243 -70 305 -82
14 -3 48 -9 77 -15 29 -6 74 -13 100 -17 26 -3 57 -8 68 -10 11 -2 54 -7 95
-10 41 -3 86 -8 100 -10 30 -5 362 -5 405 0 17 2 62 7 102 11 39 3 82 8 95 10
31 4 117 16 123 16 2 1 33 7 67 16 35 8 77 17 93 20 139 22 453 132 645 225
152 74 440 247 448 269 2 5 8 9 13 9 10 0 17 5 63 45 16 14 32 25 35 25 3 0
22 15 42 33 19 17 57 50 84 71 151 124 400 408 526 601 97 150 101 156 131
210 146 263 260 567 324 865 25 116 48 288 59 430 5 61 5 344 0 400 -19 224
-23 247 -66 460 -42 204 -126 450 -227 660 -328 689 -916 1240 -1624 1521 -87
35 -227 85 -263 93 -5 2 -17 6 -25 9 -24 9 -271 65 -320 72 -24 4 -47 8 -50
10 -3 1 -36 6 -73 10 -37 3 -78 8 -90 11 -12 2 -87 6 -167 10 -80 3 -150 7
-157 9 -6 2 -13 2 -15 1z m1272 -2136 c23 -41 53 -94 66 -117 13 -23 55 -95
93 -159 l68 -118 -67 -115 c-100 -173 -289 -500 -318 -551 -13 -25 -28 -49
-32 -55 -4 -5 -19 -30 -32 -55 -14 -25 -67 -117 -118 -205 -51 -88 -104 -180
-118 -205 -14 -25 -80 -139 -147 -255 -67 -115 -177 -308 -246 -427 l-124
-217 -275 0 -275 0 -170 296 c-93 163 -230 400 -303 527 -74 127 -144 249
-156 271 -13 22 -47 81 -76 130 -29 50 -67 115 -84 145 -46 81 -156 273 -167
290 -24 39 -129 222 -129 225 0 2 -25 44 -55 94 -30 50 -55 97 -55 105 0 17
254 459 266 463 5 2 22 -21 38 -50 16 -28 104 -180 194 -337 91 -157 175 -303
187 -325 13 -22 71 -123 130 -225 60 -102 115 -198 123 -215 9 -16 31 -53 49
-82 18 -29 33 -54 33 -57 0 -4 71 -129 100 -176 13 -22 200 -345 236 -410 99
-173 111 -191 121 -178 6 7 37 58 68 113 32 55 90 156 130 225 113 195 328
569 430 745 50 88 170 295 265 460 95 165 202 351 238 413 35 62 66 111 67
110 1 -2 22 -37 45 -78z"/>
</g>
</svg>
